<svg xmlns="http://www.w3.org/2000/svg" width="46" height="126" fill="none" viewBox="0 0 46 126">
    <circle cx="4" cy="4" r="4" fill="#fff"/>
    <circle cx="23" cy="4" r="4" fill="#fff"/>
    <circle cx="42" cy="4" r="4" fill="#fff"/>
    <circle cx="4" cy="21" r="4" fill="#fff"/>
    <circle cx="23" cy="21" r="4" fill="#fff"/>
    <circle cx="42" cy="21" r="4" fill="#fff"/>
    <circle cx="4" cy="38" r="4" fill="#fff"/>
    <circle cx="23" cy="38" r="4" fill="#fff"/>
    <circle cx="42" cy="38" r="4" fill="#fff"/>
    <circle cx="4" cy="55" r="4" fill="#fff"/>
    <circle cx="23" cy="55" r="4" fill="#fff"/>
    <circle cx="42" cy="55" r="4" fill="#fff"/>
    <circle cx="4" cy="72" r="4" fill="#fff"/>
    <circle cx="23" cy="72" r="4" fill="#fff"/>
    <circle cx="42" cy="72" r="4" fill="#fff"/>
    <circle cx="4" cy="88" r="4" fill="#fff"/>
    <circle cx="23" cy="88" r="4" fill="#fff"/>
    <circle cx="42" cy="88" r="4" fill="#fff"/>
    <circle cx="4" cy="105" r="4" fill="#fff"/>
    <circle cx="23" cy="105" r="4" fill="#fff"/>
    <circle cx="42" cy="105" r="4" fill="#fff"/>
    <circle cx="4" cy="122" r="4" fill="#fff"/>
    <circle cx="23" cy="122" r="4" fill="#fff"/>
    <circle cx="42" cy="122" r="4" fill="#fff"/>
</svg>
